# xmcd CD database file
#
# Track frame offsets:
#	150
#	9850
#	15900
#	25350
#	30325
#	38950
#	43225
#	50950
#	57212
#	66287
#	76200
#
# Disc length: 1193 seconds
#
# Revision: 0
# Processed by: cddbd v1.5.2PL0 Copyright (c) Steve Scherf et al.
# Submitted via: CDex 1.51
#
DISCID=8304a70b
DTITLE=Various Artist - Ten Years Love
DYEAR=1991
DGENRE=New Age
TTITLE0=Lover's Day
TTITLE1=T02
TTITLE2=Velvet Rose
TTITLE3=T04
TTITLE4=Alison
TTITLE5=T06
TTITLE6=Love Song
TTITLE7=T08
TTITLE8=Stormy Night
TTITLE9=T10
TTITLE10=Lover's Day(Reprise)
EXTD=YEAR: 1991
EXTT0=
EXTT1=
EXTT2=
EXTT3=
EXTT4=
EXTT5=
EXTT6=
EXTT7=
EXTT8=
EXTT9=
EXTT10=
PLAYORDER=
